<?xml version="1.0" standalone="no"?>
<!DOCTYPE svg PUBLIC "-//W3C//DTD SVG 20010904//EN"
 "http://www.w3.org/TR/2001/REC-SVG-20010904/DTD/svg10.dtd">
<svg version="1.0" xmlns="http://www.w3.org/2000/svg"
 width="751.000000pt" height="751.000000pt" viewBox="0 0 751.000000 751.000000"
 preserveAspectRatio="xMidYMid meet">
<metadata>
Created by potrace 1.14, written by Peter Selinger 2001-2017
</metadata>
<g transform="translate(0.000000,751.000000) scale(0.100000,-0.100000)"
fill="#000000" stroke="none">
<path d="M4376 7479 l-26 -20 0 -813 c0 -775 1 -814 18 -829 17 -16 82 -17
734 -17 680 0 716 1 731 18 16 17 17 89 17 830 l0 811 -26 20 c-26 21 -34 21
-724 21 -690 0 -698 0 -724 -21z"/>
<path d="M6076 6879 l-26 -20 0 -513 c0 -484 1 -514 18 -529 17 -15 68 -17
534 -17 486 0 516 1 531 18 15 17 17 68 17 530 l0 511 -26 20 c-26 21 -36 21
-524 21 -488 0 -498 0 -524 -21z"/>
<path d="M413 5585 c-17 -7 -39 -24 -47 -38 -15 -21 -16 -280 -14 -2761 l3
-2738 28 -24 28 -24 2690 0 2691 0 29 29 29 29 0 2734 c0 2511 -1 2735 -16
2757 -38 54 129 51 -2736 51 -2234 -1 -2658 -3 -2685 -15z m1542 -495 c493
-56 864 -448 892 -941 28 -497 -314 -935 -808 -1035 -125 -25 -344 -16 -464
20 -317 95 -567 333 -672 641 -205 600 202 1241 835 1315 97 11 118 11 217 0z"/>
<path d="M6076 5579 l-26 -20 0 -313 c0 -290 1 -314 18 -329 16 -15 55 -17
334 -17 292 0 316 1 331 18 15 16 17 54 17 330 l0 311 -26 20 c-26 20 -38 21
-324 21 -286 0 -298 -1 -324 -21z"/>
</g>
</svg>
